<svg width="121" height="63" viewBox="0 0 121 63" fill="none" xmlns="http://www.w3.org/2000/svg">
<g id="azure 1">
<g id="Group">
<g id="Group_2">
<g id="Group_3">
<g id="Group_4">
<g id="Vector">
<path d="M36.375 42.5C39.8691 41.8408 43.0921 41.3826 43.125 41.375L39.75 36.875C37.9355 34.57 36.375 32.3858 36.375 32.375C36.375 32.354 39.7304 22.2858 39.75 22.25C39.7563 22.238 42.08 27.4013 45.375 33.5L51 43.625H30.75L36.375 42.5ZM76.875 41.375C75.2789 41.2663 73.7461 39.8167 73.5 38C73.4345 37.5166 73.5068 37.7625 73.5 34.625V32.375H75.75V34.625C75.7552 37.2718 75.7265 37.8149 75.75 38C75.7838 38.5967 75.3852 38.6633 75.75 39.125C76.0123 39.4173 76.496 40.1842 76.875 40.25C77.1899 40.2927 77.6851 40.2927 78 40.25C78.41 40.1594 78.8356 39.4405 79.125 39.125C79.4933 38.7096 80.1447 38.5545 80.25 38V34.625V32.375H81.375V41.375H80.25V40.25C80.2597 40.0053 80.2703 40.4939 80.25 40.25C80.2185 40.2906 80.2705 40.2024 80.25 40.25C79.9924 40.7413 79.59 41.0938 79.125 41.375C78.5725 41.6949 77.5033 41.4488 76.875 41.375ZM92.625 41.375C92.042 41.3228 91.9955 41.699 91.5 41.375C90.4782 40.6997 89.427 39.5316 89.25 38C89.1883 37.438 89.2 36.3132 89.25 35.75C89.3529 34.7733 89.8154 34.2912 90.375 33.5C90.5608 33.2652 91.2792 32.5742 91.5 32.375C91.9533 31.9871 92.0528 31.3849 92.625 31.25C93.0415 31.1674 93.3271 31.2196 93.75 31.25C94.1831 31.2912 94.4903 32.1636 94.875 32.375C95.2597 32.5863 95.7229 32.026 96 32.375C96.602 33.2189 97.1399 34.6989 97.125 35.75C97.131 35.9402 97.1294 36.6562 97.125 36.875H93.75H90.375C90.381 37.354 91.3222 37.5581 91.5 38C91.6465 38.3666 91.2315 38.8429 91.5 39.125C91.936 39.5287 93.1688 40.1949 93.75 40.25C94.0919 40.2665 94.5355 40.2947 94.875 40.25C95.5765 40.1379 95.4338 39.5704 96 39.125C95.9893 39.132 96.0639 39.0736 96 39.125C96.0329 39.3525 96.0203 40.0209 96 40.25C95.3722 40.6614 94.4864 41.2815 93.75 41.375C93.3141 41.4076 93.0616 41.3937 92.625 41.375ZM96 35.75C96.0047 35.0098 95.341 34.059 94.875 33.5C94.5786 33.1948 94.1626 32.4369 93.75 32.375C93.4678 32.3436 92.905 32.3267 92.625 32.375C92.1842 32.4656 91.8119 33.1632 91.5 33.5C91.1522 33.8693 91.6555 34.1337 91.5 34.625C91.4349 34.835 91.5334 35.532 91.5 35.75H96ZM53.25 41.375C53.2537 41.3636 55.3455 38.2132 56.625 34.625L58.875 27.875H60C60.1898 28.3939 64.5 41.3687 64.5 41.375C64.5 41.3812 63.8125 41.375 63.375 41.375L62.25 39.125V38H56.625C56.6127 38.0339 55.8239 38.1522 55.5 39.125V41.375H54.375C54.1116 41.3941 53.5121 41.4077 53.25 41.375ZM61.125 35.75C61.125 35.747 60.5298 35.0303 60 33.5C59.0082 30.6369 58.9533 30.585 58.875 30.125C58.8385 29.9092 58.898 29.9282 58.875 30.125C58.8439 30.3379 58.934 29.9185 58.875 30.125C58.8489 30.21 58.2699 31.987 57.75 33.5C57.2301 35.0129 56.625 35.7421 56.625 35.75C56.625 35.7578 57.7117 35.75 58.875 35.75C60.0383 35.75 61.125 35.7527 61.125 35.75ZM65.625 41.375V40.25L67.875 36.875L70.125 33.5H67.875H65.625V32.375H72.375L70.125 35.75C68.7043 37.8468 66.75 40.2443 66.75 40.25C66.75 40.2557 68.7213 40.25 70.125 40.25H72.375V41.375H65.625ZM83.625 41.375C83.6195 41.369 83.625 39.4372 83.625 36.875V32.375H85.875C85.875 32.9037 85.8674 33.5 85.875 33.5C85.8571 33.567 85.9077 33.4393 85.875 33.5C86.0373 33.0096 85.5188 32.7376 85.875 32.375C86.1773 32.0598 86.5775 31.3198 87 31.25C87.1542 31.2272 87.9696 31.2393 88.125 31.25C87.9156 31.1812 88.3446 31.2452 88.125 31.25V33.5C87.8374 33.3439 87.3234 33.475 87 33.5C86.8093 33.5052 87.1777 33.4279 87 33.5C86.6288 33.6477 86.0797 33.1454 85.875 33.5C85.5578 34.0544 85.9471 35.1091 85.875 35.75C85.8635 35.8608 85.8779 36.2197 85.875 38V41.375H84.75C84.365 41.3733 83.6305 41.3815 83.625 41.375ZM24 41.375C24 41.369 25.4751 38.1415 27.375 34.625L30.75 27.875L35.25 24.5C37.4639 22.5164 38.618 21.1269 38.625 21.125C38.6103 21.1855 38.6533 21.0699 38.625 21.125L34.125 31.25L30.75 41.375H27.375C25.6578 41.3771 24 41.3812 24 41.375Z" fill="#0089D6"/>
</g>
</g>
</g>
</g>
</g>
</g>
</svg>
