<svg
  width="161"
  height="40"
  viewBox="0 0 161 40"
  fill="none"
  xmlns="http://www.w3.org/2000/svg"
>
  <path d="M24.9756 0H32V7.05882H24.9756V0Z" fill="#001F3F" />
  <path d="M0 32.9412H7.02439V40H0V32.9412Z" fill="#001F3F" />
  <path
    d="M7.02439 29.0196L24.9756 10.9804L23.8718 9.8712L5.92061 27.9104L7.02439 29.0196Z"
    fill="#001F3F"
  />
  <path
    d="M42.686 19V4.48H45.854V19H42.686ZM38.396 7.142V4.48H50.144V7.142H38.396ZM53.6939 19L50.8339 7.45H54.1339L55.7619 16.492H56.1799L58.1159 7.45H61.9219L63.9239 16.492H64.3419L65.9259 7.45H69.1599L66.2779 19H61.9219L60.1179 10.024H59.7439L58.0279 19H53.6939ZM76.1196 19.308C74.961 19.308 73.9416 19.0807 73.0616 18.626C72.1816 18.1567 71.4923 17.4747 70.9936 16.58C70.495 15.6707 70.2456 14.5413 70.2456 13.192C70.2456 11.8427 70.495 10.7207 70.9936 9.826C71.507 8.93133 72.2036 8.264 73.0836 7.824C73.9783 7.36933 74.9903 7.142 76.1196 7.142C77.2783 7.142 78.2976 7.36933 79.1776 7.824C80.0723 8.27867 80.769 8.96067 81.2676 9.87C81.781 10.7647 82.0376 11.8867 82.0376 13.236C82.0376 14.6 81.7736 15.7367 81.2456 16.646C80.7323 17.5407 80.0283 18.208 79.1336 18.648C78.2536 19.088 77.249 19.308 76.1196 19.308ZM76.2296 16.954C76.8016 16.954 77.2783 16.822 77.6596 16.558C78.0556 16.294 78.349 15.898 78.5396 15.37C78.745 14.8273 78.8476 14.1747 78.8476 13.412C78.8476 12.6053 78.7376 11.9233 78.5176 11.366C78.3123 10.794 78.0043 10.3613 77.5936 10.068C77.183 9.76 76.6623 9.606 76.0316 9.606C75.489 9.606 75.0196 9.738 74.6236 10.002C74.2276 10.2513 73.927 10.6473 73.7216 11.19C73.5163 11.718 73.4136 12.3707 73.4136 13.148C73.4136 14.3947 73.663 15.3407 74.1616 15.986C74.6603 16.6313 75.3496 16.954 76.2296 16.954ZM84.4439 19V4.48H88.5799L95.1579 14.754H95.3999L95.2019 4.48H98.2819V19H94.5419L87.5899 8.242H87.3479L87.5459 19H84.4439ZM106.584 19.308C105.426 19.308 104.406 19.0807 103.526 18.626C102.646 18.1567 101.957 17.4747 101.458 16.58C100.96 15.6707 100.71 14.5413 100.71 13.192C100.71 11.8427 100.96 10.7207 101.458 9.826C101.972 8.93133 102.668 8.264 103.548 7.824C104.443 7.36933 105.455 7.142 106.584 7.142C107.743 7.142 108.762 7.36933 109.642 7.824C110.537 8.27867 111.234 8.96067 111.732 9.87C112.246 10.7647 112.502 11.8867 112.502 13.236C112.502 14.6 112.238 15.7367 111.71 16.646C111.197 17.5407 110.493 18.208 109.598 18.648C108.718 19.088 107.714 19.308 106.584 19.308ZM106.694 16.954C107.266 16.954 107.743 16.822 108.124 16.558C108.52 16.294 108.814 15.898 109.004 15.37C109.21 14.8273 109.312 14.1747 109.312 13.412C109.312 12.6053 109.202 11.9233 108.982 11.366C108.777 10.794 108.469 10.3613 108.058 10.068C107.648 9.76 107.127 9.606 106.496 9.606C105.954 9.606 105.484 9.738 105.088 10.002C104.692 10.2513 104.392 10.6473 104.186 11.19C103.981 11.718 103.878 12.3707 103.878 13.148C103.878 14.3947 104.128 15.3407 104.626 15.986C105.125 16.6313 105.814 16.954 106.694 16.954ZM118.957 19.308C117.989 19.308 117.138 19.0587 116.405 18.56C115.686 18.0613 115.129 17.3573 114.733 16.448C114.337 15.5387 114.139 14.4607 114.139 13.214C114.139 12.0407 114.315 10.9993 114.667 10.09C115.019 9.18067 115.539 8.46933 116.229 7.956C116.918 7.44267 117.776 7.186 118.803 7.186C119.551 7.186 120.181 7.32533 120.695 7.604C121.208 7.88267 121.626 8.29333 121.949 8.836C122.286 9.364 122.55 10.002 122.741 10.75H123.247C123.144 10.2807 123.049 9.826 122.961 9.386C122.887 8.93133 122.829 8.49867 122.785 8.088C122.741 7.67733 122.719 7.318 122.719 7.01V3.27H125.887V13.324V19H123.247V15.656H122.807C122.645 16.4773 122.396 17.1593 122.059 17.702C121.721 18.2447 121.289 18.648 120.761 18.912C120.247 19.176 119.646 19.308 118.957 19.308ZM120.013 16.712C120.497 16.712 120.907 16.6093 121.245 16.404C121.582 16.1987 121.861 15.9347 122.081 15.612C122.301 15.2747 122.462 14.9153 122.565 14.534C122.667 14.138 122.719 13.7713 122.719 13.434V13.016C122.719 12.7373 122.675 12.4513 122.587 12.158C122.513 11.85 122.403 11.5493 122.257 11.256C122.11 10.9627 121.927 10.706 121.707 10.486C121.487 10.2513 121.23 10.068 120.937 9.936C120.643 9.804 120.321 9.738 119.969 9.738C119.441 9.738 118.993 9.88467 118.627 10.178C118.26 10.4713 117.974 10.882 117.769 11.41C117.563 11.9233 117.461 12.5247 117.461 13.214C117.461 13.918 117.563 14.534 117.769 15.062C117.989 15.59 118.289 16.0007 118.671 16.294C119.052 16.5727 119.499 16.712 120.013 16.712ZM134.174 19.308C133.22 19.308 132.37 19.176 131.622 18.912C130.888 18.648 130.265 18.2667 129.752 17.768C129.238 17.2693 128.842 16.6533 128.564 15.92C128.3 15.1867 128.168 14.358 128.168 13.434C128.168 12.5247 128.292 11.6887 128.542 10.926C128.806 10.1487 129.187 9.48133 129.686 8.924C130.184 8.352 130.793 7.912 131.512 7.604C132.23 7.296 133.044 7.142 133.954 7.142C134.834 7.142 135.618 7.28867 136.308 7.582C136.997 7.86067 137.569 8.286 138.024 8.858C138.493 9.43 138.83 10.134 139.036 10.97C139.256 11.7913 139.336 12.7373 139.278 13.808L130.214 13.896V12.158L137.452 12.092L136.33 12.972C136.432 12.1947 136.381 11.5567 136.176 11.058C135.97 10.5593 135.67 10.1927 135.274 9.958C134.892 9.72333 134.467 9.606 133.998 9.606C133.44 9.606 132.949 9.75267 132.524 10.046C132.098 10.3393 131.768 10.772 131.534 11.344C131.299 11.9013 131.182 12.576 131.182 13.368C131.182 14.6147 131.453 15.5313 131.996 16.118C132.553 16.7047 133.279 16.998 134.174 16.998C134.584 16.998 134.929 16.9467 135.208 16.844C135.501 16.7267 135.736 16.58 135.912 16.404C136.102 16.228 136.249 16.03 136.352 15.81C136.469 15.59 136.564 15.37 136.638 15.15L139.388 15.744C139.256 16.2867 139.058 16.778 138.794 17.218C138.544 17.6433 138.207 18.0173 137.782 18.34C137.356 18.648 136.843 18.8827 136.242 19.044C135.655 19.22 134.966 19.308 134.174 19.308ZM61.6893 36V25.44H63.9933V36H61.6893ZM58.5693 27.376V25.44H67.1133V27.376H58.5693ZM71.2725 36.224C70.5792 36.224 69.9605 36.128 69.4165 35.936C68.8832 35.744 68.4298 35.4667 68.0565 35.104C67.6832 34.7413 67.3952 34.2933 67.1925 33.76C67.0005 33.2267 66.9045 32.624 66.9045 31.952C66.9045 31.2907 66.9952 30.6827 67.1765 30.128C67.3685 29.5627 67.6458 29.0773 68.0085 28.672C68.3712 28.256 68.8138 27.936 69.3365 27.712C69.8592 27.488 70.4512 27.376 71.1125 27.376C71.7525 27.376 72.3232 27.4827 72.8245 27.696C73.3258 27.8987 73.7418 28.208 74.0725 28.624C74.4138 29.04 74.6592 29.552 74.8085 30.16C74.9685 30.7573 75.0272 31.4453 74.9845 32.224L68.3925 32.288V31.024L73.6565 30.976L72.8405 31.616C72.9152 31.0507 72.8778 30.5867 72.7285 30.224C72.5792 29.8613 72.3605 29.5947 72.0725 29.424C71.7952 29.2533 71.4858 29.168 71.1445 29.168C70.7392 29.168 70.3818 29.2747 70.0725 29.488C69.7632 29.7013 69.5232 30.016 69.3525 30.432C69.1818 30.8373 69.0965 31.328 69.0965 31.904C69.0965 32.8107 69.2938 33.4773 69.6885 33.904C70.0938 34.3307 70.6218 34.544 71.2725 34.544C71.5712 34.544 71.8218 34.5067 72.0245 34.432C72.2378 34.3467 72.4085 34.24 72.5365 34.112C72.6752 33.984 72.7818 33.84 72.8565 33.68C72.9418 33.52 73.0112 33.36 73.0645 33.2L75.0645 33.632C74.9685 34.0267 74.8245 34.384 74.6325 34.704C74.4512 35.0133 74.2058 35.2853 73.8965 35.52C73.5872 35.744 73.2138 35.9147 72.7765 36.032C72.3498 36.16 71.8485 36.224 71.2725 36.224ZM80.6315 36.224C79.9062 36.224 79.2715 36.1173 78.7275 35.904C78.1835 35.6907 77.7302 35.392 77.3675 35.008C77.0048 34.624 76.7328 34.1707 76.5515 33.648C76.3702 33.1147 76.2795 32.5333 76.2795 31.904C76.2795 31.2427 76.3702 30.64 76.5515 30.096C76.7435 29.5413 77.0208 29.0613 77.3835 28.656C77.7462 28.2507 78.1942 27.936 78.7275 27.712C79.2608 27.488 79.8688 27.376 80.5515 27.376C81.2342 27.376 81.8262 27.488 82.3275 27.712C82.8395 27.936 83.2502 28.2507 83.5595 28.656C83.8795 29.0507 84.0982 29.52 84.2155 30.064L82.0875 30.752C82.0555 30.4213 81.9648 30.1387 81.8155 29.904C81.6768 29.6587 81.4848 29.4773 81.2395 29.36C81.0048 29.232 80.7382 29.168 80.4395 29.168C80.1302 29.168 79.8635 29.232 79.6395 29.36C79.4155 29.4773 79.2235 29.6533 79.0635 29.888C78.9142 30.112 78.7968 30.3893 78.7115 30.72C78.6368 31.04 78.5995 31.4027 78.5995 31.808C78.5995 32.384 78.6742 32.8747 78.8235 33.28C78.9835 33.6747 79.2128 33.9787 79.5115 34.192C79.8208 34.3947 80.1995 34.496 80.6475 34.496C81.0742 34.496 81.4155 34.416 81.6715 34.256C81.9275 34.0853 82.1142 33.872 82.2315 33.616C82.3595 33.3493 82.4395 33.0773 82.4715 32.8L84.4875 33.248C84.4342 33.664 84.3168 34.0533 84.1355 34.416C83.9648 34.7787 83.7195 35.0933 83.3995 35.36C83.0795 35.6267 82.6902 35.84 82.2315 36C81.7835 36.1493 81.2502 36.224 80.6315 36.224ZM85.806 36V30.72V24.56H88.126V27.184C88.126 27.3973 88.1153 27.6213 88.094 27.856C88.0833 28.0907 88.0567 28.3307 88.014 28.576C87.982 28.8107 87.9447 29.0507 87.902 29.296C87.87 29.5413 87.8327 29.7867 87.79 30.032H88.142C88.2913 29.488 88.478 29.0187 88.702 28.624C88.9367 28.2293 89.2353 27.9253 89.598 27.712C89.9607 27.488 90.4193 27.376 90.974 27.376C91.9553 27.376 92.6913 27.7227 93.182 28.416C93.6727 29.0987 93.918 30.1493 93.918 31.568V36H91.598V31.92C91.598 31.024 91.4647 30.3627 91.198 29.936C90.942 29.4987 90.5527 29.28 90.03 29.28C89.6033 29.28 89.2513 29.408 88.974 29.664C88.6967 29.92 88.4887 30.2667 88.35 30.704C88.2113 31.1307 88.1313 31.6107 88.11 32.144V36H85.806ZM95.8997 36V30.912V27.6H97.7878L97.7718 30.112H98.0918C98.2304 29.504 98.4278 28.9973 98.6838 28.592C98.9398 28.1867 99.2598 27.8827 99.6438 27.68C100.038 27.4773 100.502 27.376 101.036 27.376C102.006 27.376 102.742 27.7173 103.244 28.4C103.756 29.0827 104.012 30.1547 104.012 31.616V36H101.692V31.872C101.692 30.976 101.558 30.3253 101.292 29.92C101.036 29.504 100.657 29.296 100.156 29.296C99.7291 29.296 99.3718 29.4293 99.0838 29.696C98.7958 29.9627 98.5771 30.3147 98.4278 30.752C98.2891 31.1787 98.2144 31.6587 98.2038 32.192V36H95.8997ZM109.802 36.224C108.959 36.224 108.218 36.0587 107.578 35.728C106.938 35.3867 106.436 34.8907 106.074 34.24C105.711 33.5787 105.53 32.7573 105.53 31.776C105.53 30.7947 105.711 29.9787 106.074 29.328C106.447 28.6773 106.954 28.192 107.594 27.872C108.244 27.5413 108.98 27.376 109.802 27.376C110.644 27.376 111.386 27.5413 112.026 27.872C112.676 28.2027 113.183 28.6987 113.546 29.36C113.919 30.0107 114.106 30.8267 114.106 31.808C114.106 32.8 113.914 33.6267 113.53 34.288C113.156 34.9387 112.644 35.424 111.994 35.744C111.354 36.064 110.623 36.224 109.802 36.224ZM109.882 34.512C110.298 34.512 110.644 34.416 110.922 34.224C111.21 34.032 111.423 33.744 111.562 33.36C111.711 32.9653 111.786 32.4907 111.786 31.936C111.786 31.3493 111.706 30.8533 111.546 30.448C111.396 30.032 111.172 29.7173 110.874 29.504C110.575 29.28 110.196 29.168 109.738 29.168C109.343 29.168 109.002 29.264 108.714 29.456C108.426 29.6373 108.207 29.9253 108.058 30.32C107.908 30.704 107.834 31.1787 107.834 31.744C107.834 32.6507 108.015 33.3387 108.378 33.808C108.74 34.2773 109.242 34.512 109.882 34.512ZM115.743 36V24.56H118.016V36H115.743ZM123.942 36.224C123.099 36.224 122.358 36.0587 121.718 35.728C121.078 35.3867 120.577 34.8907 120.214 34.24C119.851 33.5787 119.67 32.7573 119.67 31.776C119.67 30.7947 119.851 29.9787 120.214 29.328C120.587 28.6773 121.094 28.192 121.734 27.872C122.385 27.5413 123.121 27.376 123.942 27.376C124.785 27.376 125.526 27.5413 126.166 27.872C126.817 28.2027 127.323 28.6987 127.686 29.36C128.059 30.0107 128.246 30.8267 128.246 31.808C128.246 32.8 128.054 33.6267 127.67 34.288C127.297 34.9387 126.785 35.424 126.134 35.744C125.494 36.064 124.763 36.224 123.942 36.224ZM124.022 34.512C124.438 34.512 124.785 34.416 125.062 34.224C125.35 34.032 125.563 33.744 125.702 33.36C125.851 32.9653 125.926 32.4907 125.926 31.936C125.926 31.3493 125.846 30.8533 125.686 30.448C125.537 30.032 125.313 29.7173 125.014 29.504C124.715 29.28 124.337 29.168 123.878 29.168C123.483 29.168 123.142 29.264 122.854 29.456C122.566 29.6373 122.347 29.9253 122.198 30.32C122.049 30.704 121.974 31.1787 121.974 31.744C121.974 32.6507 122.155 33.3387 122.518 33.808C122.881 34.2773 123.382 34.512 124.022 34.512ZM133.212 38.928C132.295 38.928 131.537 38.8533 130.94 38.704C130.353 38.5653 129.921 38.3573 129.644 38.08C129.367 37.8027 129.228 37.456 129.228 37.04C129.228 36.5493 129.42 36.1493 129.804 35.84C130.199 35.5307 130.775 35.344 131.532 35.28V34.96C130.956 34.96 130.513 34.9013 130.204 34.784C129.895 34.656 129.74 34.4373 129.74 34.128C129.74 33.8293 129.889 33.5627 130.188 33.328C130.497 33.0933 131.004 32.9067 131.708 32.768V32.448C131.047 32.4053 130.529 32.192 130.156 31.808C129.783 31.424 129.596 30.928 129.596 30.32C129.596 29.7867 129.745 29.312 130.044 28.896C130.343 28.4693 130.785 28.1333 131.372 27.888C131.969 27.632 132.7 27.504 133.564 27.504H137.82V29.264L135.18 28.896V29.264C135.863 29.36 136.353 29.5307 136.652 29.776C136.961 30.0213 137.116 30.3627 137.116 30.8C137.116 31.2373 136.972 31.6213 136.684 31.952C136.396 32.2827 135.985 32.544 135.452 32.736C134.929 32.9173 134.3 33.008 133.564 33.008C133.425 33.008 133.276 33.0027 133.116 32.992C132.956 32.9813 132.689 32.9547 132.316 32.912C132.113 33.0613 131.953 33.1947 131.836 33.312C131.729 33.4187 131.676 33.52 131.676 33.616C131.676 33.6907 131.713 33.7547 131.788 33.808C131.873 33.8613 131.98 33.8987 132.108 33.92C132.247 33.9413 132.385 33.952 132.524 33.952H134.924C135.137 33.952 135.415 33.968 135.756 34C136.097 34.0213 136.439 34.1013 136.78 34.24C137.121 34.3787 137.409 34.6027 137.644 34.912C137.879 35.2107 137.996 35.6427 137.996 36.208C137.996 36.8267 137.82 37.3387 137.468 37.744C137.127 38.1493 136.599 38.448 135.884 38.64C135.18 38.832 134.289 38.928 133.212 38.928ZM133.468 37.088C134.119 37.088 134.625 37.0507 134.988 36.976C135.351 36.912 135.607 36.8 135.756 36.64C135.916 36.4907 135.996 36.2987 135.996 36.064C135.996 35.8507 135.948 35.6853 135.852 35.568C135.767 35.4507 135.649 35.3707 135.5 35.328C135.361 35.2747 135.217 35.2427 135.068 35.232C134.929 35.2107 134.807 35.2 134.7 35.2H132.684C132.236 35.2427 131.911 35.3653 131.708 35.568C131.516 35.76 131.42 35.984 131.42 36.24C131.42 36.4747 131.495 36.6507 131.644 36.768C131.793 36.8853 132.017 36.9653 132.316 37.008C132.625 37.0613 133.009 37.088 133.468 37.088ZM133.436 31.808C133.948 31.808 134.332 31.6853 134.588 31.44C134.844 31.184 134.972 30.8533 134.972 30.448C134.972 30.0213 134.839 29.6693 134.572 29.392C134.316 29.1147 133.937 28.976 133.436 28.976C132.945 28.976 132.561 29.1147 132.284 29.392C132.007 29.6587 131.868 30.0053 131.868 30.432C131.868 30.6987 131.927 30.9387 132.044 31.152C132.172 31.3547 132.353 31.5147 132.588 31.632C132.823 31.7493 133.105 31.808 133.436 31.808ZM139.493 36V27.6H141.798V36H139.493ZM140.662 26.336C140.214 26.336 139.867 26.2453 139.622 26.064C139.387 25.872 139.27 25.5947 139.27 25.232C139.27 24.8587 139.387 24.576 139.622 24.384C139.867 24.192 140.214 24.096 140.662 24.096C141.12 24.096 141.467 24.192 141.702 24.384C141.947 24.576 142.07 24.8587 142.07 25.232C142.07 25.584 141.947 25.856 141.702 26.048C141.467 26.24 141.12 26.336 140.662 26.336ZM147.835 36.224C147.142 36.224 146.523 36.128 145.979 35.936C145.446 35.744 144.992 35.4667 144.619 35.104C144.246 34.7413 143.958 34.2933 143.755 33.76C143.563 33.2267 143.467 32.624 143.467 31.952C143.467 31.2907 143.558 30.6827 143.739 30.128C143.931 29.5627 144.208 29.0773 144.571 28.672C144.934 28.256 145.376 27.936 145.899 27.712C146.422 27.488 147.014 27.376 147.675 27.376C148.315 27.376 148.886 27.4827 149.387 27.696C149.888 27.8987 150.304 28.208 150.635 28.624C150.976 29.04 151.222 29.552 151.371 30.16C151.531 30.7573 151.59 31.4453 151.547 32.224L144.955 32.288V31.024L150.219 30.976L149.403 31.616C149.478 31.0507 149.44 30.5867 149.291 30.224C149.142 29.8613 148.923 29.5947 148.635 29.424C148.358 29.2533 148.048 29.168 147.707 29.168C147.302 29.168 146.944 29.2747 146.635 29.488C146.326 29.7013 146.086 30.016 145.915 30.432C145.744 30.8373 145.659 31.328 145.659 31.904C145.659 32.8107 145.856 33.4773 146.251 33.904C146.656 34.3307 147.184 34.544 147.835 34.544C148.134 34.544 148.384 34.5067 148.587 34.432C148.8 34.3467 148.971 34.24 149.099 34.112C149.238 33.984 149.344 33.84 149.419 33.68C149.504 33.52 149.574 33.36 149.627 33.2L151.627 33.632C151.531 34.0267 151.387 34.384 151.195 34.704C151.014 35.0133 150.768 35.2853 150.459 35.52C150.15 35.744 149.776 35.9147 149.339 36.032C148.912 36.16 148.411 36.224 147.835 36.224ZM156.682 36.224C156.116 36.224 155.604 36.1707 155.146 36.064C154.687 35.9573 154.292 35.8027 153.962 35.6C153.631 35.3973 153.364 35.1573 153.162 34.88C152.959 34.592 152.826 34.272 152.762 33.92L154.522 33.2C154.564 33.4347 154.682 33.6533 154.874 33.856C155.066 34.0587 155.322 34.224 155.642 34.352C155.972 34.4693 156.367 34.528 156.826 34.528C157.316 34.528 157.695 34.4587 157.962 34.32C158.228 34.1707 158.362 33.9627 158.362 33.696C158.362 33.4933 158.287 33.3333 158.138 33.216C157.988 33.0987 157.77 32.9973 157.482 32.912C157.194 32.8267 156.847 32.7467 156.442 32.672C156.047 32.576 155.642 32.4747 155.226 32.368C154.82 32.2613 154.442 32.112 154.09 31.92C153.748 31.728 153.466 31.4773 153.242 31.168C153.028 30.848 152.922 30.4427 152.922 29.952C152.922 29.44 153.06 28.992 153.338 28.608C153.615 28.224 154.02 27.9253 154.554 27.712C155.087 27.488 155.738 27.376 156.506 27.376C157.199 27.376 157.807 27.472 158.33 27.664C158.852 27.8453 159.279 28.112 159.61 28.464C159.951 28.8053 160.18 29.216 160.298 29.696L158.426 30.32C158.383 30.064 158.276 29.84 158.106 29.648C157.946 29.456 157.727 29.312 157.45 29.216C157.183 29.12 156.868 29.072 156.506 29.072C156.047 29.072 155.69 29.1467 155.434 29.296C155.188 29.4453 155.066 29.6427 155.066 29.888C155.066 30.0907 155.146 30.256 155.306 30.384C155.476 30.512 155.711 30.6187 156.01 30.704C156.308 30.7787 156.66 30.8587 157.066 30.944C157.492 31.0293 157.908 31.1307 158.314 31.248C158.719 31.3547 159.082 31.4987 159.402 31.68C159.732 31.8613 159.994 32.1013 160.186 32.4C160.378 32.6987 160.474 33.0827 160.474 33.552C160.474 34.1067 160.324 34.5867 160.026 34.992C159.727 35.3867 159.295 35.6907 158.73 35.904C158.164 36.1173 157.482 36.224 156.682 36.224Z"
    fill="#001F3F"
  />
</svg>