<?xml version="1.0" standalone="no"?>
<!DOCTYPE svg PUBLIC "-//W3C//DTD SVG 20010904//EN"
 "http://www.w3.org/TR/2001/REC-SVG-20010904/DTD/svg10.dtd">
<svg version="1.0" xmlns="http://www.w3.org/2000/svg"
 width="200.000000pt" height="200.000000pt" viewBox="0 0 200.000000 200.000000"
 preserveAspectRatio="xMidYMid meet">
<metadata>
Created by potrace 1.14, written by Peter Selinger 2001-2017
</metadata>
<g transform="translate(0.000000,200.000000) scale(0.100000,-0.100000)"
fill="#000000" stroke="none">
<path d="M860 1330 l0 -70 70 0 70 0 0 70 0 70 -70 0 -70 0 0 -70z"/>
<path d="M622 1039 c-111 -110 -199 -205 -196 -211 6 -10 414 389 414 404 0
21 -32 -7 -218 -193z"/>
<path d="M1360 850 c0 -12 -6 -20 -12 -19 -34 4 -49 -3 -59 -27 -16 -44 11
-74 66 -74 l45 0 0 70 c0 63 -2 70 -20 70 -13 0 -20 -7 -20 -20z m-2 -67 c-5
-25 -28 -28 -28 -4 0 12 6 21 16 21 9 0 14 -7 12 -17z"/>
<path d="M560 845 c0 -8 9 -15 20 -15 17 0 20 -7 20 -50 0 -43 3 -50 20 -50
17 0 20 7 20 51 0 46 2 50 22 47 17 -2 26 -15 37 -50 11 -38 19 -48 36 -48 13
0 26 9 32 23 l10 22 7 -23 c13 -39 45 -24 66 31 18 46 18 47 -1 47 -11 0 -24
-10 -29 -22 l-9 -23 -7 23 c-4 14 -14 22 -29 22 -15 0 -25 -8 -29 -22 l-7 -23
-9 23 c-5 12 -18 22 -30 22 -11 0 -20 7 -20 15 0 12 -13 15 -60 15 -47 0 -60
-3 -60 -15z"/>
<path d="M1010 795 c0 -58 2 -65 20 -65 15 0 20 7 20 27 l0 27 28 -27 c48 -46
62 -37 62 38 0 63 -1 65 -25 65 -21 0 -25 -5 -25 -27 l-1 -28 -20 28 c-11 15
-29 27 -40 27 -17 0 -19 -8 -19 -65z"/>
<path d="M1193 829 c-60 -22 -44 -99 20 -99 40 0 57 15 57 51 0 40 -37 63 -77
48z m35 -46 c-5 -25 -28 -28 -28 -4 0 12 6 21 16 21 9 0 14 -7 12 -17z"/>
<path d="M886 814 c-47 -46 22 -107 85 -74 22 12 26 59 7 78 -17 17 -74 15
-92 -4z m59 -34 c0 -7 -6 -15 -12 -17 -8 -3 -13 4 -13 17 0 13 5 20 13 18 6
-3 12 -11 12 -18z"/>
<path d="M1432 818 c-20 -20 -15 -66 8 -78 24 -13 70 -10 71 5 0 6 -10 13 -23
17 -20 5 -18 6 10 7 24 1 32 6 32 19 0 10 -5 23 -12 30 -16 16 -70 16 -86 0z
m53 -18 c3 -5 -1 -10 -10 -10 -9 0 -13 5 -10 10 3 6 8 10 10 10 2 0 7 -4 10
-10z"/>
<path d="M267 804 c-4 -4 -7 -36 -7 -71 l0 -63 75 0 76 0 -3 68 -3 67 -65 3
c-36 2 -69 0 -73 -4z"/>
<path d="M960 620 c0 -5 5 -10 11 -10 5 0 7 5 4 10 -3 6 -8 10 -11 10 -2 0 -4
-4 -4 -10z"/>
<path d="M1405 620 c-3 -5 -1 -10 4 -10 6 0 11 5 11 10 0 6 -2 10 -4 10 -3 0
-8 -4 -11 -10z"/>
<path d="M270 610 c0 -5 5 -10 10 -10 6 0 10 -11 10 -25 0 -14 5 -25 10 -25 6
0 10 10 10 23 0 13 5 28 12 35 9 9 5 12 -20 12 -18 0 -32 -4 -32 -10z"/>
<path d="M341 585 c0 -34 2 -36 9 -17 5 12 12 22 15 22 3 0 10 -10 15 -22 8
-22 9 -22 9 5 1 20 -4 27 -18 27 -11 0 -22 6 -24 13 -3 6 -5 -6 -6 -28z"/>
<path d="M510 605 c-14 -17 -5 -51 15 -59 22 -8 45 4 45 23 0 13 -2 13 -9 2
-11 -17 -41 -7 -41 14 0 9 9 15 26 15 14 0 23 4 19 10 -9 15 -41 12 -55 -5z"/>
<path d="M1063 585 c0 -22 2 -30 4 -17 2 12 2 30 0 40 -3 9 -5 -1 -4 -23z"/>
<path d="M1117 606 c-3 -8 4 -21 16 -30 l22 -15 -25 -1 c-21 0 -22 -2 -8 -10
21 -13 48 -3 48 17 0 8 -9 17 -20 20 -11 3 -17 9 -15 14 3 4 12 6 20 2 8 -3
15 0 15 6 0 16 -47 13 -53 -3z"/>
<path d="M1250 585 c0 -19 5 -35 10 -35 6 0 10 16 10 35 0 19 -4 35 -10 35 -5
0 -10 -16 -10 -35z"/>
<path d="M915 583 c8 -34 21 -48 29 -34 4 6 2 11 -3 11 -6 0 -11 7 -11 15 0 8
6 15 13 15 8 0 7 4 -3 10 -25 16 -32 11 -25 -17z"/>
<path d="M1358 605 c-11 -11 5 -55 19 -55 12 0 13 3 4 14 -8 10 -9 16 -1 21 6
3 8 11 5 16 -7 10 -19 12 -27 4z"/>
<path d="M417 594 c-23 -23 5 -61 33 -44 10 6 8 9 -6 13 -18 4 -18 5 -1 6 10
0 17 7 15 14 -5 14 -31 21 -41 11z"/>
<path d="M586 583 c-8 -20 20 -47 37 -36 6 4 2 10 -9 14 -17 7 -17 8 4 8 29 1
24 25 -5 29 -12 2 -23 -4 -27 -15z"/>
<path d="M653 584 c-4 -11 1 -22 12 -31 16 -11 21 -11 33 1 8 8 12 22 9 30 -8
21 -46 21 -54 0z m37 -9 c0 -8 -4 -15 -10 -15 -5 0 -10 7 -10 15 0 8 5 15 10
15 6 0 10 -7 10 -15z"/>
<path d="M720 585 c0 -8 8 -15 18 -16 15 0 15 -1 -2 -8 -15 -6 -16 -10 -7 -15
8 -5 19 -2 29 7 14 15 14 17 -2 23 -14 5 -15 9 -4 15 9 6 7 9 -9 9 -14 0 -23
-6 -23 -15z"/>
<path d="M781 558 c1 -24 3 -35 6 -25 3 10 11 16 18 13 18 -6 39 20 31 39 -3
8 -17 15 -31 15 -23 0 -25 -3 -24 -42z m39 17 c0 -8 -4 -15 -9 -15 -13 0 -22
16 -14 24 11 11 23 6 23 -9z"/>
<path d="M865 591 c17 -8 18 -10 3 -10 -10 -1 -18 -7 -18 -14 0 -20 9 -25 31
-20 30 8 21 47 -11 50 -23 2 -23 2 -5 -6z"/>
<path d="M960 575 c0 -14 5 -25 10 -25 6 0 10 11 10 25 0 14 -4 25 -10 25 -5
0 -10 -11 -10 -25z"/>
<path d="M1003 593 c18 -5 18 -5 0 -18 -22 -17 -6 -39 21 -29 27 10 16 49 -14
51 -16 1 -18 0 -7 -4z"/>
<path d="M1183 584 c-3 -8 2 -23 11 -32 15 -15 17 -15 32 0 21 21 11 48 -16
48 -11 0 -23 -7 -27 -16z m37 -9 c0 -8 -4 -15 -10 -15 -5 0 -10 7 -10 15 0 8
5 15 10 15 6 0 10 -7 10 -15z"/>
<path d="M1280 581 c0 -22 15 -34 42 -36 13 -1 18 6 18 27 0 17 -4 27 -10 23
-5 -3 -10 -13 -10 -21 0 -8 -4 -14 -10 -14 -5 0 -10 9 -10 20 0 11 -4 20 -10
20 -5 0 -10 -9 -10 -19z"/>
<path d="M1400 575 c0 -14 5 -25 10 -25 6 0 10 11 10 25 0 14 -4 25 -10 25 -5
0 -10 -11 -10 -25z"/>
<path d="M1433 584 c-3 -8 2 -23 11 -32 15 -15 17 -15 32 0 21 21 11 48 -16
48 -11 0 -23 -7 -27 -16z m37 -9 c0 -8 -4 -15 -10 -15 -5 0 -10 7 -10 15 0 8
5 15 10 15 6 0 10 -7 10 -15z"/>
<path d="M1500 576 c0 -14 5 -26 10 -26 6 0 10 9 10 20 0 11 5 20 10 20 6 0
10 -9 10 -20 0 -11 5 -20 11 -20 6 0 9 10 7 23 -2 16 -11 23 -30 25 -24 3 -28
0 -28 -22z"/>
<path d="M1577 593 c-12 -12 -7 -23 11 -24 15 0 15 -1 -2 -8 -16 -6 -17 -9 -4
-13 8 -4 21 -2 29 3 12 8 11 12 -4 23 -18 14 -18 14 0 19 15 4 15 5 -3 6 -11
0 -24 -2 -27 -6z"/>
</g>
</svg>
